<svg xmlns="http://www.w3.org/2000/svg" xmlns:xlink="http://www.w3.org/1999/xlink" width="500" zoomAndPan="magnify" viewBox="0 0 375 374.999991" height="500" preserveAspectRatio="xMidYMid meet" version="1.0"><defs><clipPath id="e1dec78088"><path d="M 47 48.648438 L 352 48.648438 L 352 195 L 47 195 Z M 47 48.648438 " clip-rule="nonzero"/></clipPath><clipPath id="d33aa3d136"><path d="M 29 170.5625 L 357.632812 170.5625 L 357.632812 274.984375 L 29 274.984375 Z M 29 170.5625 " clip-rule="nonzero"/></clipPath><clipPath id="bff1f6cf1e"><path d="M 17.132812 185.167969 L 325.109375 185.167969 L 325.109375 326.148438 L 17.132812 326.148438 Z M 17.132812 185.167969 " clip-rule="nonzero"/></clipPath><clipPath id="682019e749"><path d="M 264 265 L 304.996094 265 L 304.996094 307 L 264 307 Z M 264 265 " clip-rule="nonzero"/></clipPath><clipPath id="c00d4ca812"><path d="M 240 242 L 304.996094 242 L 304.996094 307 L 240 307 Z M 240 242 " clip-rule="nonzero"/></clipPath><clipPath id="0e5f21215f"><path d="M 217.246094 219.40625 L 304.996094 219.40625 L 304.996094 307 L 217.246094 307 Z M 217.246094 219.40625 " clip-rule="nonzero"/></clipPath></defs><g clip-path="url(#e1dec78088)"><path fill="#2c3e50" d="M 271.363281 110.972656 C 228.324219 85.105469 136.1875 140.894531 136.1875 140.894531 L 96.03125 138.523438 C 218.632812 56.636719 271.363281 110.972656 271.363281 110.972656 Z M 233.730469 117.640625 C 232.652344 120.703125 230.5625 122.777344 228.070312 123.21875 C 223.867188 123.964844 216.726562 125.363281 209.105469 127.445312 C 196.550781 130.871094 183.097656 132.1875 169.019531 131.121094 C 169.019531 131.121094 198.886719 112.472656 237.632812 106.523438 Z M 90.429688 140.804688 C 90.429688 140.804688 68.820312 165.09375 53.722656 187.035156 C 52.496094 188.8125 53.4375 191.347656 55.433594 191.722656 C 69.480469 194.359375 96.632812 196.835938 133.753906 188.515625 C 170.941406 180.183594 277.09375 174.007812 325.035156 171.5625 L 346.972656 170.5 L 325.035156 169.867188 L 325.035156 168.851562 L 345.207031 168.160156 L 325.035156 167.039062 L 325.03125 167.042969 C 286.367188 165.292969 204.84375 163.648438 156.636719 177.390625 C 156.636719 177.390625 219.898438 111.988281 278.492188 134.710938 C 298.925781 142.632812 314.183594 149.800781 325.035156 155.46875 L 325.035156 155.464844 L 351.425781 170.976562 C 344.308594 163.636719 325.035156 150.351562 325.035156 150.351562 C 313.722656 143.140625 293.035156 129.375 273.226562 113.191406 L 325.035156 149.644531 L 325.035156 71.324219 C 325.035156 58.851562 314.921875 48.738281 302.449219 48.738281 L 70.085938 48.738281 C 57.613281 48.738281 47.503906 58.851562 47.503906 71.324219 L 47.503906 185.996094 C 47.585938 185.875 47.652344 185.75 47.738281 185.632812 C 54.546875 176.984375 72.746094 154.734375 90.429688 140.804688 " fill-opacity="1" fill-rule="nonzero"/></g><g clip-path="url(#d33aa3d136)"><path fill="#2c3e50" d="M 208.636719 218.019531 C 155.089844 236.167969 84.898438 235.828125 84.898438 235.828125 L 92.257812 219.351562 C 117.824219 218.96875 141.742188 215.558594 163.78125 209.410156 C 194.566406 200.816406 221.476562 195.699219 221.476562 195.699219 L 349.570312 170.675781 L 193.738281 196.300781 C 192.011719 196.589844 190.285156 196.960938 188.5625 197.414062 L 129.203125 213.074219 C 123.976562 214.453125 118.597656 215.269531 113.125 215.503906 L 106.6875 215.78125 C 92.785156 216.378906 78.484375 213.453125 65.0625 206.585938 C 58.25 203.101562 51.683594 198.667969 47.589844 193.308594 C 47.554688 193.265625 47.535156 193.214844 47.503906 193.171875 L 47.503906 264.558594 L 29.171875 274.8125 L 47.503906 269.1875 L 325.03125 184.007812 L 357.875 173.421875 L 208.636719 218.019531 " fill-opacity="1" fill-rule="nonzero"/></g><g clip-path="url(#bff1f6cf1e)"><path fill="#2c3e50" d="M 47.503906 285.726562 L 17.132812 296.710938 L 47.503906 290.566406 L 47.503906 303.6875 C 47.503906 316.160156 57.613281 326.269531 70.085938 326.269531 L 302.449219 326.269531 C 314.921875 326.269531 325.035156 316.160156 325.035156 303.6875 L 325.035156 185.328125 L 47.503906 285.726562 " fill-opacity="1" fill-rule="nonzero"/></g><g clip-path="url(#682019e749)"><path fill="#ffffff" d="M 264.109375 302.75 C 264.109375 303.027344 264.132812 303.300781 264.1875 303.570312 C 264.242188 303.839844 264.320312 304.101562 264.425781 304.359375 C 264.53125 304.613281 264.660156 304.855469 264.816406 305.082031 C 264.96875 305.3125 265.140625 305.523438 265.335938 305.71875 C 265.53125 305.914062 265.742188 306.089844 265.972656 306.242188 C 266.203125 306.394531 266.445312 306.523438 266.699219 306.628906 C 266.953125 306.734375 267.214844 306.816406 267.484375 306.867188 C 267.757812 306.921875 268.03125 306.949219 268.304688 306.949219 C 268.582031 306.949219 268.855469 306.921875 269.125 306.867188 C 269.394531 306.816406 269.65625 306.734375 269.910156 306.628906 C 270.164062 306.523438 270.40625 306.394531 270.636719 306.242188 C 270.867188 306.089844 271.078125 305.914062 271.273438 305.71875 C 271.46875 305.523438 271.640625 305.3125 271.796875 305.082031 C 271.949219 304.855469 272.078125 304.613281 272.183594 304.359375 C 272.289062 304.101562 272.367188 303.839844 272.421875 303.570312 C 272.476562 303.300781 272.503906 303.027344 272.503906 302.75 C 272.503906 301.820312 272.550781 300.894531 272.644531 299.96875 C 272.738281 299.046875 272.875 298.128906 273.058594 297.214844 C 273.242188 296.304688 273.46875 295.40625 273.738281 294.515625 C 274.011719 293.625 274.324219 292.753906 274.679688 291.894531 C 275.035156 291.035156 275.433594 290.199219 275.875 289.378906 C 276.3125 288.558594 276.789062 287.761719 277.308594 286.992188 C 277.824219 286.21875 278.378906 285.472656 278.96875 284.753906 C 279.558594 284.035156 280.179688 283.347656 280.839844 282.691406 C 281.496094 282.035156 282.183594 281.410156 282.902344 280.820312 C 283.621094 280.234375 284.367188 279.679688 285.140625 279.164062 C 285.910156 278.648438 286.707031 278.167969 287.527344 277.730469 C 288.347656 277.292969 289.1875 276.894531 290.042969 276.539062 C 290.902344 276.183594 291.777344 275.867188 292.664062 275.597656 C 293.554688 275.328125 294.457031 275.101562 295.367188 274.917969 C 296.277344 274.738281 297.195312 274.597656 298.121094 274.507812 C 299.046875 274.414062 299.972656 274.367188 300.902344 274.367188 C 301.179688 274.367188 301.453125 274.339844 301.722656 274.285156 C 301.992188 274.230469 302.257812 274.152344 302.511719 274.046875 C 302.765625 273.941406 303.007812 273.8125 303.238281 273.65625 C 303.46875 273.503906 303.679688 273.328125 303.875 273.136719 C 304.070312 272.941406 304.246094 272.726562 304.398438 272.496094 C 304.550781 272.269531 304.679688 272.027344 304.785156 271.769531 C 304.894531 271.515625 304.972656 271.253906 305.027344 270.980469 C 305.082031 270.710938 305.105469 270.4375 305.105469 270.160156 C 305.105469 269.886719 305.082031 269.613281 305.027344 269.339844 C 304.972656 269.070312 304.894531 268.808594 304.785156 268.550781 C 304.679688 268.296875 304.550781 268.054688 304.398438 267.824219 C 304.246094 267.597656 304.070312 267.382812 303.875 267.1875 C 303.679688 266.992188 303.46875 266.820312 303.238281 266.664062 C 303.007812 266.511719 302.765625 266.382812 302.511719 266.277344 C 302.257812 266.171875 301.992188 266.089844 301.722656 266.039062 C 301.453125 265.984375 301.179688 265.957031 300.902344 265.957031 C 299.699219 265.957031 298.496094 266.019531 297.296875 266.140625 C 296.097656 266.257812 294.910156 266.4375 293.726562 266.671875 C 292.546875 266.910156 291.378906 267.203125 290.226562 267.554688 C 289.074219 267.90625 287.941406 268.3125 286.832031 268.773438 C 285.71875 269.234375 284.628906 269.75 283.570312 270.320312 C 282.507812 270.886719 281.476562 271.507812 280.472656 272.175781 C 279.472656 272.84375 278.507812 273.5625 277.574219 274.328125 C 276.644531 275.089844 275.753906 275.898438 274.902344 276.75 C 274.050781 277.601562 273.242188 278.492188 272.476562 279.425781 C 271.714844 280.355469 270.996094 281.320312 270.328125 282.324219 C 269.65625 283.324219 269.039062 284.355469 268.46875 285.417969 C 267.902344 286.480469 267.386719 287.566406 266.925781 288.679688 C 266.460938 289.792969 266.054688 290.925781 265.703125 292.078125 C 265.355469 293.230469 265.058594 294.394531 264.824219 295.578125 C 264.585938 296.757812 264.410156 297.949219 264.289062 299.148438 C 264.171875 300.34375 264.109375 301.546875 264.109375 302.75 Z M 264.109375 302.75 " fill-opacity="1" fill-rule="nonzero"/></g><g clip-path="url(#c00d4ca812)"><path fill="#ffffff" d="M 240.726562 302.75 C 240.726562 303.027344 240.753906 303.300781 240.808594 303.570312 C 240.863281 303.839844 240.941406 304.101562 241.046875 304.359375 C 241.152344 304.613281 241.28125 304.855469 241.433594 305.082031 C 241.585938 305.3125 241.761719 305.523438 241.957031 305.71875 C 242.152344 305.914062 242.363281 306.089844 242.59375 306.242188 C 242.820312 306.394531 243.0625 306.523438 243.320312 306.628906 C 243.574219 306.734375 243.835938 306.816406 244.105469 306.867188 C 244.375 306.921875 244.648438 306.949219 244.925781 306.949219 C 245.199219 306.949219 245.472656 306.921875 245.742188 306.867188 C 246.015625 306.816406 246.277344 306.734375 246.53125 306.628906 C 246.785156 306.523438 247.027344 306.394531 247.257812 306.242188 C 247.484375 306.089844 247.699219 305.914062 247.894531 305.71875 C 248.085938 305.523438 248.261719 305.3125 248.414062 305.082031 C 248.566406 304.855469 248.699219 304.613281 248.804688 304.359375 C 248.910156 304.101562 248.988281 303.839844 249.042969 303.570312 C 249.09375 303.300781 249.121094 303.027344 249.121094 302.75 C 249.125 301.058594 249.210938 299.367188 249.378906 297.679688 C 249.546875 295.992188 249.796875 294.320312 250.128906 292.65625 C 250.460938 290.996094 250.875 289.355469 251.367188 287.734375 C 251.863281 286.113281 252.433594 284.519531 253.085938 282.953125 C 253.734375 281.390625 254.460938 279.859375 255.257812 278.367188 C 256.058594 276.871094 256.929688 275.421875 257.875 274.011719 C 258.816406 272.605469 259.824219 271.246094 260.902344 269.933594 C 261.976562 268.625 263.113281 267.371094 264.3125 266.175781 C 265.511719 264.976562 266.765625 263.839844 268.078125 262.765625 C 269.386719 261.691406 270.746094 260.683594 272.15625 259.742188 C 273.566406 258.800781 275.015625 257.929688 276.511719 257.132812 C 278.007812 256.332031 279.535156 255.609375 281.101562 254.960938 C 282.667969 254.3125 284.261719 253.742188 285.882812 253.25 C 287.503906 252.757812 289.144531 252.34375 290.808594 252.015625 C 292.46875 251.683594 294.144531 251.433594 295.832031 251.265625 C 297.515625 251.101562 299.207031 251.015625 300.902344 251.015625 C 301.179688 251.015625 301.453125 250.988281 301.726562 250.933594 C 301.996094 250.878906 302.261719 250.800781 302.515625 250.695312 C 302.773438 250.589844 303.015625 250.457031 303.246094 250.304688 C 303.476562 250.152344 303.691406 249.976562 303.886719 249.78125 C 304.082031 249.582031 304.257812 249.371094 304.410156 249.140625 C 304.566406 248.910156 304.695312 248.667969 304.800781 248.410156 C 304.90625 248.15625 304.988281 247.890625 305.039062 247.621094 C 305.09375 247.347656 305.121094 247.074219 305.121094 246.796875 C 305.121094 246.519531 305.09375 246.246094 305.039062 245.972656 C 304.988281 245.699219 304.90625 245.4375 304.800781 245.179688 C 304.695312 244.925781 304.566406 244.683594 304.410156 244.453125 C 304.257812 244.222656 304.082031 244.007812 303.886719 243.8125 C 303.691406 243.617188 303.476562 243.441406 303.246094 243.289062 C 303.015625 243.132812 302.773438 243.003906 302.515625 242.898438 C 302.261719 242.792969 301.996094 242.710938 301.726562 242.65625 C 301.453125 242.601562 301.179688 242.578125 300.902344 242.578125 C 298.929688 242.578125 296.964844 242.671875 295.003906 242.867188 C 293.042969 243.058594 291.09375 243.347656 289.164062 243.734375 C 287.230469 244.117188 285.320312 244.59375 283.433594 245.167969 C 281.546875 245.738281 279.695312 246.402344 277.875 247.15625 C 276.054688 247.910156 274.273438 248.753906 272.535156 249.683594 C 270.796875 250.609375 269.109375 251.621094 267.472656 252.71875 C 265.832031 253.8125 264.25 254.984375 262.726562 256.234375 C 261.203125 257.484375 259.746094 258.808594 258.351562 260.203125 C 256.957031 261.59375 255.636719 263.054688 254.386719 264.578125 C 253.136719 266.101562 251.964844 267.679688 250.867188 269.320312 C 249.773438 270.957031 248.761719 272.648438 247.832031 274.386719 C 246.902344 276.125 246.0625 277.902344 245.308594 279.722656 C 244.554688 281.542969 243.890625 283.398438 243.320312 285.285156 C 242.746094 287.167969 242.269531 289.078125 241.882812 291.011719 C 241.5 292.945312 241.210938 294.890625 241.015625 296.851562 C 240.824219 298.816406 240.726562 300.78125 240.726562 302.75 Z M 240.726562 302.75 " fill-opacity="1" fill-rule="nonzero"/></g><g clip-path="url(#0e5f21215f)"><path fill="#ffffff" d="M 217.433594 302.75 C 217.433594 303.027344 217.460938 303.300781 217.515625 303.570312 C 217.570312 303.839844 217.648438 304.101562 217.753906 304.359375 C 217.859375 304.613281 217.988281 304.855469 218.144531 305.082031 C 218.296875 305.3125 218.46875 305.523438 218.664062 305.71875 C 218.859375 305.914062 219.070312 306.089844 219.300781 306.242188 C 219.53125 306.394531 219.773438 306.523438 220.027344 306.628906 C 220.28125 306.734375 220.542969 306.816406 220.8125 306.867188 C 221.085938 306.921875 221.355469 306.949219 221.632812 306.949219 C 221.910156 306.949219 222.179688 306.921875 222.453125 306.867188 C 222.722656 306.816406 222.984375 306.734375 223.238281 306.628906 C 223.492188 306.523438 223.734375 306.394531 223.964844 306.242188 C 224.195312 306.089844 224.40625 305.914062 224.601562 305.71875 C 224.796875 305.523438 224.96875 305.3125 225.121094 305.082031 C 225.277344 304.855469 225.40625 304.613281 225.511719 304.359375 C 225.617188 304.101562 225.695312 303.839844 225.75 303.570312 C 225.804688 303.300781 225.832031 303.027344 225.832031 302.75 C 225.832031 301.523438 225.863281 300.296875 225.925781 299.070312 C 225.988281 297.84375 226.078125 296.617188 226.199219 295.394531 C 226.324219 294.175781 226.476562 292.957031 226.65625 291.742188 C 226.835938 290.527344 227.050781 289.316406 227.289062 288.113281 C 227.53125 286.910156 227.800781 285.710938 228.101562 284.519531 C 228.398438 283.328125 228.726562 282.144531 229.085938 280.96875 C 229.445312 279.796875 229.828125 278.628906 230.246094 277.472656 C 230.660156 276.316406 231.101562 275.171875 231.570312 274.039062 C 232.042969 272.902344 232.542969 271.78125 233.066406 270.671875 C 233.59375 269.5625 234.144531 268.464844 234.726562 267.382812 C 235.304688 266.300781 235.910156 265.230469 236.542969 264.179688 C 237.171875 263.125 237.832031 262.089844 238.515625 261.066406 C 239.195312 260.046875 239.902344 259.042969 240.636719 258.058594 C 241.367188 257.070312 242.121094 256.101562 242.902344 255.152344 C 243.679688 254.203125 244.484375 253.273438 245.308594 252.363281 C 246.132812 251.457031 246.980469 250.566406 247.847656 249.699219 C 248.71875 248.828125 249.605469 247.984375 250.515625 247.15625 C 251.425781 246.332031 252.355469 245.53125 253.304688 244.75 C 254.253906 243.972656 255.222656 243.214844 256.207031 242.484375 C 257.195312 241.753906 258.199219 241.046875 259.21875 240.363281 C 260.238281 239.679688 261.277344 239.023438 262.328125 238.390625 C 263.382812 237.757812 264.449219 237.152344 265.535156 236.574219 C 266.617188 235.996094 267.714844 235.441406 268.824219 234.917969 C 269.933594 234.390625 271.054688 233.890625 272.1875 233.421875 C 273.324219 232.949219 274.46875 232.507812 275.625 232.09375 C 276.78125 231.679688 277.945312 231.292969 279.121094 230.933594 C 280.296875 230.578125 281.480469 230.25 282.671875 229.949219 C 283.863281 229.648438 285.058594 229.378906 286.261719 229.140625 C 287.46875 228.898438 288.675781 228.6875 289.890625 228.503906 C 291.105469 228.324219 292.324219 228.171875 293.546875 228.050781 C 294.769531 227.929688 295.992188 227.835938 297.21875 227.773438 C 298.445312 227.714844 299.675781 227.679688 300.902344 227.679688 C 301.179688 227.679688 301.453125 227.652344 301.722656 227.597656 C 301.992188 227.542969 302.257812 227.464844 302.511719 227.359375 C 302.765625 227.253906 303.007812 227.125 303.238281 226.972656 C 303.46875 226.816406 303.679688 226.644531 303.875 226.449219 C 304.070312 226.253906 304.246094 226.039062 304.398438 225.8125 C 304.550781 225.582031 304.679688 225.339844 304.785156 225.082031 C 304.894531 224.828125 304.972656 224.566406 305.027344 224.292969 C 305.082031 224.023438 305.105469 223.75 305.105469 223.472656 C 305.105469 223.199219 305.082031 222.925781 305.027344 222.652344 C 304.972656 222.382812 304.894531 222.121094 304.785156 221.867188 C 304.679688 221.609375 304.550781 221.367188 304.398438 221.136719 C 304.246094 220.910156 304.070312 220.695312 303.875 220.5 C 303.679688 220.304688 303.46875 220.132812 303.238281 219.976562 C 303.007812 219.824219 302.765625 219.695312 302.511719 219.589844 C 302.257812 219.484375 301.992188 219.40625 301.722656 219.351562 C 301.453125 219.296875 301.179688 219.269531 300.902344 219.269531 C 299.535156 219.273438 298.171875 219.308594 296.808594 219.378906 C 295.445312 219.449219 294.085938 219.550781 292.726562 219.6875 C 291.367188 219.824219 290.011719 219.996094 288.664062 220.199219 C 287.3125 220.402344 285.96875 220.636719 284.628906 220.90625 C 283.292969 221.175781 281.960938 221.476562 280.636719 221.808594 C 279.3125 222.144531 277.996094 222.507812 276.691406 222.90625 C 275.386719 223.304688 274.089844 223.734375 272.804688 224.195312 C 271.519531 224.660156 270.246094 225.152344 268.988281 225.675781 C 267.726562 226.199219 266.480469 226.753906 265.246094 227.339844 C 264.011719 227.925781 262.792969 228.539062 261.589844 229.183594 C 260.386719 229.828125 259.199219 230.503906 258.027344 231.203125 C 256.859375 231.90625 255.707031 232.636719 254.570312 233.398438 C 253.4375 234.15625 252.320312 234.945312 251.222656 235.757812 C 250.128906 236.570312 249.050781 237.410156 247.996094 238.277344 C 246.941406 239.144531 245.910156 240.035156 244.898438 240.953125 C 243.886719 241.871094 242.898438 242.8125 241.933594 243.777344 C 240.96875 244.742188 240.027344 245.730469 239.109375 246.742188 C 238.191406 247.753906 237.300781 248.789062 236.433594 249.84375 C 235.566406 250.898438 234.726562 251.972656 233.914062 253.070312 C 233.101562 254.167969 232.3125 255.28125 231.554688 256.417969 C 230.796875 257.550781 230.066406 258.707031 229.363281 259.875 C 228.660156 261.046875 227.988281 262.234375 227.34375 263.4375 C 226.699219 264.640625 226.082031 265.859375 225.5 267.09375 C 224.914062 268.328125 224.359375 269.574219 223.835938 270.835938 C 223.3125 272.097656 222.820312 273.367188 222.359375 274.652344 C 221.894531 275.9375 221.464844 277.234375 221.070312 278.539062 C 220.671875 279.847656 220.304688 281.160156 219.972656 282.484375 C 219.636719 283.808594 219.335938 285.140625 219.066406 286.480469 C 218.800781 287.816406 218.5625 289.160156 218.363281 290.511719 C 218.160156 291.863281 217.988281 293.214844 217.851562 294.574219 C 217.714844 295.933594 217.613281 297.292969 217.542969 298.65625 C 217.472656 300.023438 217.4375 301.386719 217.433594 302.75 Z M 217.433594 302.75 " fill-opacity="1" fill-rule="nonzero"/></g></svg>